<?xml version="1.0" encoding="UTF-8"?>
<!DOCTYPE svg PUBLIC "-//W3C//DTD SVG 1.1//EN" "http://www.w3.org/Graphics/SVG/1.1/DTD/svg11.dtd">
<svg xmlns="http://www.w3.org/2000/svg" version="1.1" width="512px" height="512px" style="shape-rendering:geometricPrecision; text-rendering:geometricPrecision; image-rendering:optimizeQuality; fill-rule:evenodd; clip-rule:evenodd" xmlns:xlink="http://www.w3.org/1999/xlink">
<g><path style="opacity:0.998" fill="#0060e5" d="M 232.5,-0.5 C 247.833,-0.5 263.167,-0.5 278.5,-0.5C 364.979,9.71734 430.979,51.7173 476.5,125.5C 486.01,233.926 450.01,323.76 368.5,395C 298.153,450.174 218.487,471.841 129.5,460C 116.339,457.808 103.339,454.974 90.5,451.5C 37.2821,406.072 6.94875,348.405 -0.5,278.5C -0.5,263.167 -0.5,247.833 -0.5,232.5C 10.3875,142.857 54.7208,75.3573 132.5,30C 163.971,13.3053 197.304,3.1386 232.5,-0.5 Z"/></g>
<g><path style="opacity:1" fill="#004dba" d="M 476.5,125.5 C 495.982,158.612 507.648,194.278 511.5,232.5C 511.5,247.833 511.5,263.167 511.5,278.5C 500.612,368.144 456.279,435.644 378.5,481C 347.029,497.695 313.696,507.861 278.5,511.5C 263.167,511.5 247.833,511.5 232.5,511.5C 178.845,506.071 131.511,486.071 90.5,451.5C 103.339,454.974 116.339,457.808 129.5,460C 218.487,471.841 298.153,450.174 368.5,395C 450.01,323.76 486.01,233.926 476.5,125.5 Z"/></g>
<g><path style="opacity:1" fill="#fdfdfe" d="M 301.5,139.5 C 307.842,139.334 314.175,139.5 320.5,140C 327,142.5 331.5,147 334,153.5C 334.667,177.5 334.667,201.5 334,225.5C 331.287,234.214 325.454,239.381 316.5,241C 306.167,241.333 295.833,241.667 285.5,242C 278.786,243.9 275.286,248.4 275,255.5C 274.98,290.227 274.313,324.894 273,359.5C 270.341,365.492 265.841,369.325 259.5,371C 236.5,371.667 213.5,371.667 190.5,371C 183.572,368.406 179.072,363.573 177,356.5C 176.333,289.5 176.333,222.5 177,155.5C 179.5,149 184,144.5 190.5,142C 213.833,141.333 237.167,141.333 260.5,142C 265.178,143.676 269.011,146.509 272,150.5C 281.313,145.122 291.146,141.455 301.5,139.5 Z"/></g>
<g><path style="opacity:1" fill="#0160e6" d="M 254.5,161.5 C 254.334,171.839 254.5,182.172 255,192.5C 255.717,191.956 256.217,191.289 256.5,190.5C 270.723,170.72 290.056,160.387 314.5,159.5C 314.5,180.167 314.5,200.833 314.5,221.5C 302.771,221.088 291.104,221.588 279.5,223C 263.963,228.229 255.796,239.062 255,255.5C 254.5,287.498 254.333,319.498 254.5,351.5C 235.167,351.5 215.833,351.5 196.5,351.5C 196.5,288.167 196.5,224.833 196.5,161.5C 215.833,161.5 235.167,161.5 254.5,161.5 Z"/></g>
<g><path style="opacity:1" fill="#a8c9f6" d="M 254.5,161.5 C 255.167,171.167 255.833,180.833 256.5,190.5C 256.217,191.289 255.717,191.956 255,192.5C 254.5,182.172 254.334,171.839 254.5,161.5 Z"/></g>
</svg>
